# xmcd CD database file
#
# Track frame offsets:
#	182
#	16720
#	51070
#	71470
#	87145
#	111445
#	134620
#	147370
#	174970
#	188320
#	206020
#	239770
#	279220
#
# Disc length: 4277 seconds
#
# Revision: 0
# Processed by: cddbd v1.5.1PL0 Copyright (c) Steve Scherf et al.
# Submitted via: CDex 1.51
#
DISCID=b010b30d
DTITLE=Miscellaneous - Up all night: Blues, ballads and a big band
DYEAR=1993
DGENRE=Blues
TTITLE0=Doodling
TTITLE1=Press softly
TTITLE2=One step
TTITLE3=I won't be back
TTITLE4=Mellow tone
TTITLE5=El tango valiente
TTITLE6=Whenever
TTITLE7=Mind the gap
TTITLE8=Whole lotta man I got
TTITLE9=Lonely Guys
TTITLE10=Translucent
TTITLE11=Hope
TTITLE12=Back of my head
EXTD=YEAR: 1993
EXTT0=
EXTT1=
EXTT2=
EXTT3=
EXTT4=
EXTT5=
EXTT6=
EXTT7=
EXTT8=
EXTT9=
EXTT10=
EXTT11=
EXTT12=
PLAYORDER=
